G04 (created by PCBNEW (2013-07-07 BZR 4022)-stable) date 1/7/2015 9:26:39 PM*
%MOIN*%
G04 Gerber Fmt 3.4, Leading zero omitted, Abs format*
%FSLAX34Y34*%
G01*
G70*
G90*
G04 APERTURE LIST*
%ADD10C,0.00590551*%
%ADD11C,0.00393701*%
%ADD12C,0.0493071*%
%ADD13C,0.076*%
%ADD14R,0.076X0.076*%
%ADD15R,0.061X0.061*%
%ADD16C,0.061*%
%ADD17R,0.0493071X0.0493071*%
G04 APERTURE END LIST*
G54D10*
G54D11*
X19685Y-787D02*
G75*
G03X18897Y0I-787J0D01*
G74*
G01*
X0Y-18897D02*
G75*
G03X787Y-19685I787J0D01*
G74*
G01*
X18897Y-19685D02*
G75*
G03X19685Y-18897I0J787D01*
G74*
G01*
X787Y0D02*
X18897Y0D01*
X0Y-787D02*
X0Y-18897D01*
X787Y0D02*
G75*
G03X0Y-787I0J-787D01*
G74*
G01*
X787Y-19685D02*
X18897Y-19685D01*
X19685Y-787D02*
X19685Y-18897D01*
G54D12*
X7792Y-11511D03*
X7792Y-8559D03*
X11092Y-15519D03*
X11092Y-13551D03*
G54D13*
X8692Y-2285D03*
X9692Y-2285D03*
G54D14*
X10692Y-2285D03*
G54D13*
X1942Y-6535D03*
X1942Y-5535D03*
G54D14*
X1942Y-4535D03*
G54D15*
X10442Y-8535D03*
G54D16*
X10442Y-9535D03*
X10442Y-10535D03*
X10442Y-11535D03*
X13442Y-11535D03*
X13442Y-10535D03*
X13442Y-9535D03*
X13442Y-8535D03*
G54D13*
X6692Y-2785D03*
G54D14*
X2692Y-2785D03*
G54D13*
X2692Y-1535D03*
G54D14*
X6692Y-1535D03*
G54D16*
X11614Y-18700D03*
X12614Y-18700D03*
X14114Y-18700D03*
X15114Y-18700D03*
X2165Y-18700D03*
X3165Y-18700D03*
X4665Y-18700D03*
X5665Y-18700D03*
X1442Y-1535D03*
X1442Y-2535D03*
G54D12*
X3852Y-5035D03*
G54D17*
X5033Y-5035D03*
G54D12*
X14033Y-1785D03*
G54D17*
X12852Y-1785D03*
G54D12*
X13204Y-16535D03*
X11204Y-16535D03*
X6192Y-14535D03*
X6192Y-16535D03*
X4192Y-16535D03*
X2192Y-16535D03*
X16157Y-16338D03*
X14157Y-16338D03*
X13792Y-14335D03*
X13792Y-12335D03*
X9292Y-13735D03*
X9292Y-11735D03*
X11220Y-17519D03*
X13188Y-17519D03*
X2208Y-17535D03*
X4177Y-17535D03*
X9192Y-17535D03*
X6192Y-17535D03*
X8292Y-12635D03*
X5292Y-12635D03*
X17392Y-9135D03*
X14392Y-9135D03*
X18492Y-8535D03*
X18492Y-11535D03*
X18092Y-15235D03*
X18092Y-12235D03*
X9292Y-7335D03*
X9292Y-10335D03*
X1192Y-15035D03*
X1192Y-18035D03*
X6392Y-8535D03*
X6392Y-11535D03*
X5192Y-17519D03*
X5192Y-15551D03*
X8192Y-14551D03*
X8192Y-16519D03*
X3192Y-13551D03*
X3192Y-15519D03*
X14173Y-17519D03*
X16141Y-17519D03*
X15692Y-14519D03*
X15692Y-12551D03*
X13442Y-7519D03*
X13442Y-5551D03*
X12677Y-12535D03*
X10708Y-12535D03*
X15442Y-4194D03*
G54D17*
X15442Y-5375D03*
G54D12*
X10942Y-5625D03*
G54D17*
X10942Y-4444D03*
G54D12*
X6392Y-6641D03*
G54D17*
X6392Y-7429D03*
G54D12*
X17716Y-17125D03*
G54D17*
X17716Y-16338D03*
G54D12*
X17569Y-7535D03*
X14616Y-7535D03*
X17469Y-10535D03*
X14516Y-10535D03*
X4692Y-8559D03*
X4692Y-11511D03*
M02*
