G04 (created by PCBNEW (2013-07-07 BZR 4022)-stable) date 1/7/2015 9:26:39 PM*
%MOIN*%
G04 Gerber Fmt 3.4, Leading zero omitted, Abs format*
%FSLAX34Y34*%
G01*
G70*
G90*
G04 APERTURE LIST*
%ADD10C,0.00590551*%
%ADD11C,0.00393701*%
%ADD12C,0.011811*%
%ADD13C,0.0493071*%
%ADD14C,0.076*%
%ADD15R,0.076X0.076*%
%ADD16R,0.061X0.061*%
%ADD17C,0.061*%
%ADD18R,0.0493071X0.0493071*%
G04 APERTURE END LIST*
G54D10*
G54D11*
X19685Y-787D02*
G75*
G03X18897Y0I-787J0D01*
G74*
G01*
X0Y-18897D02*
G75*
G03X787Y-19685I787J0D01*
G74*
G01*
X18897Y-19685D02*
G75*
G03X19685Y-18897I0J787D01*
G74*
G01*
X787Y0D02*
X18897Y0D01*
X0Y-787D02*
X0Y-18897D01*
X787Y0D02*
G75*
G03X0Y-787I0J-787D01*
G74*
G01*
X787Y-19685D02*
X18897Y-19685D01*
X19685Y-787D02*
X19685Y-18897D01*
G54D12*
X1848Y-9024D02*
X2045Y-8743D01*
X2186Y-9024D02*
X2186Y-8433D01*
X1961Y-8433D01*
X1905Y-8462D01*
X1877Y-8490D01*
X1848Y-8546D01*
X1848Y-8630D01*
X1877Y-8687D01*
X1905Y-8715D01*
X1961Y-8743D01*
X2186Y-8743D01*
X1595Y-9024D02*
X1595Y-8433D01*
X1342Y-8855D02*
X1061Y-8855D01*
X1399Y-9024D02*
X1202Y-8433D01*
X1005Y-9024D01*
X836Y-8855D02*
X555Y-8855D01*
X892Y-9024D02*
X696Y-8433D01*
X499Y-9024D01*
X3030Y-9969D02*
X3030Y-9378D01*
X2805Y-9378D01*
X2748Y-9406D01*
X2720Y-9435D01*
X2692Y-9491D01*
X2692Y-9575D01*
X2720Y-9631D01*
X2748Y-9660D01*
X2805Y-9688D01*
X3030Y-9688D01*
X2439Y-9969D02*
X2439Y-9378D01*
X2186Y-9969D02*
X2186Y-9660D01*
X2214Y-9603D01*
X2270Y-9575D01*
X2355Y-9575D01*
X2411Y-9603D01*
X2439Y-9631D01*
X1820Y-9969D02*
X1877Y-9941D01*
X1905Y-9913D01*
X1933Y-9856D01*
X1933Y-9688D01*
X1905Y-9631D01*
X1877Y-9603D01*
X1820Y-9575D01*
X1736Y-9575D01*
X1680Y-9603D01*
X1652Y-9631D01*
X1624Y-9688D01*
X1624Y-9856D01*
X1652Y-9913D01*
X1680Y-9941D01*
X1736Y-9969D01*
X1820Y-9969D01*
X1370Y-9575D02*
X1370Y-9969D01*
X1370Y-9631D02*
X1342Y-9603D01*
X1286Y-9575D01*
X1202Y-9575D01*
X1145Y-9603D01*
X1117Y-9660D01*
X1117Y-9969D01*
X752Y-9969D02*
X808Y-9941D01*
X836Y-9913D01*
X864Y-9856D01*
X864Y-9688D01*
X836Y-9631D01*
X808Y-9603D01*
X752Y-9575D01*
X667Y-9575D01*
X611Y-9603D01*
X583Y-9631D01*
X555Y-9688D01*
X555Y-9856D01*
X583Y-9913D01*
X611Y-9941D01*
X667Y-9969D01*
X752Y-9969D01*
X3620Y-10914D02*
X3620Y-10323D01*
X3395Y-10323D01*
X3339Y-10351D01*
X3311Y-10379D01*
X3283Y-10436D01*
X3283Y-10520D01*
X3311Y-10576D01*
X3339Y-10604D01*
X3395Y-10633D01*
X3620Y-10633D01*
X3030Y-10914D02*
X3030Y-10520D01*
X3030Y-10633D02*
X3001Y-10576D01*
X2973Y-10548D01*
X2917Y-10520D01*
X2861Y-10520D01*
X2439Y-10886D02*
X2495Y-10914D01*
X2608Y-10914D01*
X2664Y-10886D01*
X2692Y-10829D01*
X2692Y-10604D01*
X2664Y-10548D01*
X2608Y-10520D01*
X2495Y-10520D01*
X2439Y-10548D01*
X2411Y-10604D01*
X2411Y-10661D01*
X2692Y-10717D01*
X1905Y-10914D02*
X1905Y-10604D01*
X1933Y-10548D01*
X1989Y-10520D01*
X2102Y-10520D01*
X2158Y-10548D01*
X1905Y-10886D02*
X1961Y-10914D01*
X2102Y-10914D01*
X2158Y-10886D01*
X2186Y-10829D01*
X2186Y-10773D01*
X2158Y-10717D01*
X2102Y-10689D01*
X1961Y-10689D01*
X1905Y-10661D01*
X1624Y-10914D02*
X1624Y-10520D01*
X1624Y-10576D02*
X1595Y-10548D01*
X1539Y-10520D01*
X1455Y-10520D01*
X1399Y-10548D01*
X1370Y-10604D01*
X1370Y-10914D01*
X1370Y-10604D02*
X1342Y-10548D01*
X1286Y-10520D01*
X1202Y-10520D01*
X1145Y-10548D01*
X1117Y-10604D01*
X1117Y-10914D01*
X836Y-10520D02*
X836Y-11111D01*
X836Y-10548D02*
X780Y-10520D01*
X667Y-10520D01*
X611Y-10548D01*
X583Y-10576D01*
X555Y-10633D01*
X555Y-10801D01*
X583Y-10857D01*
X611Y-10886D01*
X667Y-10914D01*
X780Y-10914D01*
X836Y-10886D01*
X3283Y-11549D02*
X3198Y-11577D01*
X3170Y-11606D01*
X3142Y-11662D01*
X3142Y-11746D01*
X3170Y-11802D01*
X3198Y-11830D01*
X3255Y-11859D01*
X3480Y-11859D01*
X3480Y-11268D01*
X3283Y-11268D01*
X3226Y-11296D01*
X3198Y-11324D01*
X3170Y-11381D01*
X3170Y-11437D01*
X3198Y-11493D01*
X3226Y-11521D01*
X3283Y-11549D01*
X3480Y-11549D01*
X2805Y-11859D02*
X2861Y-11830D01*
X2889Y-11774D01*
X2889Y-11268D01*
X2327Y-11859D02*
X2327Y-11549D01*
X2355Y-11493D01*
X2411Y-11465D01*
X2523Y-11465D01*
X2580Y-11493D01*
X2327Y-11830D02*
X2383Y-11859D01*
X2523Y-11859D01*
X2580Y-11830D01*
X2608Y-11774D01*
X2608Y-11718D01*
X2580Y-11662D01*
X2523Y-11634D01*
X2383Y-11634D01*
X2327Y-11606D01*
X2045Y-11859D02*
X2045Y-11268D01*
X1989Y-11634D02*
X1820Y-11859D01*
X1820Y-11465D02*
X2045Y-11690D01*
X1342Y-11830D02*
X1399Y-11859D01*
X1511Y-11859D01*
X1567Y-11830D01*
X1595Y-11774D01*
X1595Y-11549D01*
X1567Y-11493D01*
X1511Y-11465D01*
X1399Y-11465D01*
X1342Y-11493D01*
X1314Y-11549D01*
X1314Y-11606D01*
X1595Y-11662D01*
X977Y-11859D02*
X1033Y-11830D01*
X1061Y-11774D01*
X1061Y-11268D01*
X808Y-11465D02*
X667Y-11859D01*
X527Y-11465D02*
X667Y-11859D01*
X724Y-11999D01*
X752Y-12027D01*
X808Y-12055D01*
X2580Y-12269D02*
X2552Y-12241D01*
X2495Y-12213D01*
X2355Y-12213D01*
X2298Y-12241D01*
X2270Y-12269D01*
X2242Y-12325D01*
X2242Y-12382D01*
X2270Y-12466D01*
X2608Y-12803D01*
X2242Y-12803D01*
X1877Y-12213D02*
X1820Y-12213D01*
X1764Y-12241D01*
X1736Y-12269D01*
X1708Y-12325D01*
X1680Y-12438D01*
X1680Y-12579D01*
X1708Y-12691D01*
X1736Y-12747D01*
X1764Y-12775D01*
X1820Y-12803D01*
X1877Y-12803D01*
X1933Y-12775D01*
X1961Y-12747D01*
X1989Y-12691D01*
X2017Y-12579D01*
X2017Y-12438D01*
X1989Y-12325D01*
X1961Y-12269D01*
X1933Y-12241D01*
X1877Y-12213D01*
X1117Y-12803D02*
X1455Y-12803D01*
X1286Y-12803D02*
X1286Y-12213D01*
X1342Y-12297D01*
X1399Y-12354D01*
X1455Y-12382D01*
X583Y-12213D02*
X864Y-12213D01*
X892Y-12494D01*
X864Y-12466D01*
X808Y-12438D01*
X667Y-12438D01*
X611Y-12466D01*
X583Y-12494D01*
X555Y-12550D01*
X555Y-12691D01*
X583Y-12747D01*
X611Y-12775D01*
X667Y-12803D01*
X808Y-12803D01*
X864Y-12775D01*
X892Y-12747D01*
X2298Y-13158D02*
X2102Y-13748D01*
X1905Y-13158D01*
X1595Y-13158D02*
X1539Y-13158D01*
X1483Y-13186D01*
X1455Y-13214D01*
X1427Y-13270D01*
X1399Y-13383D01*
X1399Y-13523D01*
X1427Y-13636D01*
X1455Y-13692D01*
X1483Y-13720D01*
X1539Y-13748D01*
X1595Y-13748D01*
X1652Y-13720D01*
X1680Y-13692D01*
X1708Y-13636D01*
X1736Y-13523D01*
X1736Y-13383D01*
X1708Y-13270D01*
X1680Y-13214D01*
X1652Y-13186D01*
X1595Y-13158D01*
X1145Y-13692D02*
X1117Y-13720D01*
X1145Y-13748D01*
X1174Y-13720D01*
X1145Y-13692D01*
X1145Y-13748D01*
X555Y-13748D02*
X892Y-13748D01*
X724Y-13748D02*
X724Y-13158D01*
X780Y-13242D01*
X836Y-13298D01*
X892Y-13327D01*
%LPC*%
G54D13*
X7792Y-11511D03*
X7792Y-8559D03*
X11092Y-15519D03*
X11092Y-13551D03*
G54D14*
X8692Y-2285D03*
X9692Y-2285D03*
G54D15*
X10692Y-2285D03*
G54D14*
X1942Y-6535D03*
X1942Y-5535D03*
G54D15*
X1942Y-4535D03*
G54D16*
X10442Y-8535D03*
G54D17*
X10442Y-9535D03*
X10442Y-10535D03*
X10442Y-11535D03*
X13442Y-11535D03*
X13442Y-10535D03*
X13442Y-9535D03*
X13442Y-8535D03*
G54D14*
X6692Y-2785D03*
G54D15*
X2692Y-2785D03*
G54D14*
X2692Y-1535D03*
G54D15*
X6692Y-1535D03*
G54D17*
X11614Y-18700D03*
X12614Y-18700D03*
X14114Y-18700D03*
X15114Y-18700D03*
X2165Y-18700D03*
X3165Y-18700D03*
X4665Y-18700D03*
X5665Y-18700D03*
X1442Y-1535D03*
X1442Y-2535D03*
G54D13*
X3852Y-5035D03*
G54D18*
X5033Y-5035D03*
G54D13*
X14033Y-1785D03*
G54D18*
X12852Y-1785D03*
G54D13*
X13204Y-16535D03*
X11204Y-16535D03*
X6192Y-14535D03*
X6192Y-16535D03*
X4192Y-16535D03*
X2192Y-16535D03*
X16157Y-16338D03*
X14157Y-16338D03*
X13792Y-14335D03*
X13792Y-12335D03*
X9292Y-13735D03*
X9292Y-11735D03*
X11220Y-17519D03*
X13188Y-17519D03*
X2208Y-17535D03*
X4177Y-17535D03*
X9192Y-17535D03*
X6192Y-17535D03*
X8292Y-12635D03*
X5292Y-12635D03*
X17392Y-9135D03*
X14392Y-9135D03*
X18492Y-8535D03*
X18492Y-11535D03*
X18092Y-15235D03*
X18092Y-12235D03*
X9292Y-7335D03*
X9292Y-10335D03*
X1192Y-15035D03*
X1192Y-18035D03*
X6392Y-8535D03*
X6392Y-11535D03*
X5192Y-17519D03*
X5192Y-15551D03*
X8192Y-14551D03*
X8192Y-16519D03*
X3192Y-13551D03*
X3192Y-15519D03*
X14173Y-17519D03*
X16141Y-17519D03*
X15692Y-14519D03*
X15692Y-12551D03*
X13442Y-7519D03*
X13442Y-5551D03*
X12677Y-12535D03*
X10708Y-12535D03*
X15442Y-4194D03*
G54D18*
X15442Y-5375D03*
G54D13*
X10942Y-5625D03*
G54D18*
X10942Y-4444D03*
G54D13*
X6392Y-6641D03*
G54D18*
X6392Y-7429D03*
G54D13*
X17716Y-17125D03*
G54D18*
X17716Y-16338D03*
G54D13*
X17569Y-7535D03*
X14616Y-7535D03*
X17469Y-10535D03*
X14516Y-10535D03*
X4692Y-8559D03*
X4692Y-11511D03*
M02*
