M48
INCH,TZ
T1C0.024
T2C0.032
T3C0.040
%
G90
G05
T1
X1193Y-15035
X1193Y-18035
X2193Y-16535
X2209Y-17535
X3193Y-13551
X3193Y-15520
X3852Y-5035
X4177Y-17535
X4193Y-16535
X4693Y-8559
X4693Y-11512
X5033Y-5035
X5193Y-15551
X5193Y-17520
X5293Y-12635
X6193Y-14535
X6193Y-16535
X6193Y-17535
X6393Y-6642
X6393Y-7429
X6393Y-8535
X6393Y-11535
X7793Y-8559
X7793Y-11512
X8193Y-14551
X8193Y-16520
X8293Y-12635
X9193Y-17535
X9293Y-7335
X9293Y-10335
X9293Y-11735
X9293Y-13735
X10709Y-12535
X10943Y-4445
X10943Y-5626
X11093Y-13551
X11093Y-15520
X11205Y-16535
X11220Y-17520
X12677Y-12535
X12852Y-1785
X13189Y-17520
X13205Y-16535
X13443Y-5551
X13443Y-7520
X13793Y-12335
X13793Y-14335
X14033Y-1785
X14157Y-16339
X14173Y-17520
X14393Y-9135
X14517Y-10535
X14617Y-7535
X15443Y-4195
X15443Y-5376
X15693Y-12551
X15693Y-14520
X16142Y-17520
X16157Y-16339
X17393Y-9135
X17469Y-10535
X17569Y-7535
X17717Y-16339
X17717Y-17126
X18093Y-12235
X18093Y-15235
X18493Y-8535
X18493Y-11535
T2
X1443Y-1535
X1443Y-2535
X2165Y-18701
X3165Y-18701
X4665Y-18701
X5665Y-18701
X10443Y-8535
X10443Y-9535
X10443Y-10535
X10443Y-11535
X11614Y-18701
X12614Y-18701
X13443Y-8535
X13443Y-9535
X13443Y-10535
X13443Y-11535
X14114Y-18701
X15114Y-18701
T3
X1943Y-4535
X1943Y-5535
X1943Y-6535
X2693Y-1535
X2693Y-2785
X6693Y-1535
X6693Y-2785
X8693Y-2285
X9693Y-2285
X10693Y-2285
T0
M30
